<svg width="961" height="122" viewBox="0 0 961 122" fill="none" xmlns="http://www.w3.org/2000/svg">
<path d="M47.4375 94.25C37.0208 94.25 28.3958 92.2917 21.5625 88.375C14.6875 84.4583 9.52083 78.9792 6.0625 71.9375C2.60417 64.8958 0.875 56.6458 0.875 47.1875C0.875 37.9792 2.625 29.8542 6.125 22.8125C9.625 15.7708 14.8333 10.2708 21.75 6.3125C28.6667 2.3125 37.1875 0.3125 47.3125 0.3125C57.8958 0.3125 65.8125 1.8125 71.0625 4.8125C76.3125 7.8125 78.9375 11.3958 78.9375 15.5625C78.9375 19.0625 77.3333 22.0625 74.125 24.5625C70.9583 27.0208 66.0417 28.25 59.375 28.25C59.375 25.25 58.9792 22.3542 58.1875 19.5625C57.3958 16.7292 56 14.3542 54 12.4375C52.0417 10.5208 49.3542 9.5625 45.9375 9.5625C38.9375 9.5625 34.1458 12.8333 31.5625 19.375C29.0208 25.875 27.75 35.1458 27.75 47.1875C27.75 55.9792 28.5208 62.9375 30.0625 68.0625C31.6042 73.2708 34.125 77.0208 37.625 79.3125C41.125 81.6042 45.8542 82.75 51.8125 82.75C56.5208 82.75 60.4375 82.0417 63.5625 80.625C66.7708 79.25 69.4792 77.5625 71.6875 75.5625C73.8958 73.5208 75.7292 71.5208 77.1875 69.5625C77.7708 70.1875 78.2292 71.1042 78.5625 72.3125C78.8958 73.4792 79.0625 74.5208 79.0625 75.4375C79.0625 77.4375 78.6042 79.5208 77.6875 81.6875C76.8125 83.8542 75.2292 85.8958 72.9375 87.8125C70.6458 89.7292 67.4167 91.2917 63.25 92.5C59.125 93.6667 53.8542 94.25 47.4375 94.25ZM110.062 94.25C106.354 94.25 102.979 93.4792 99.9375 91.9375C96.8542 90.4375 94.3958 88.125 92.5625 85C90.7292 81.875 89.8125 77.9375 89.8125 73.1875C89.8125 66.1042 92.1458 60.8958 96.8125 57.5625C101.521 54.2292 108.625 52.3958 118.125 52.0625L128.438 51.625V45C128.438 40.3333 127.896 36.875 126.812 34.625C125.688 32.4167 124.021 31.3125 121.812 31.3125C119.771 31.3125 118.167 32.4583 117 34.75C115.792 37.0833 115.188 40.5 115.188 45C108.479 45 103.458 44.3125 100.125 42.9375C96.8333 41.5625 95.1875 39.2708 95.1875 36.0625C95.1875 32.8125 96.5 30.1875 99.125 28.1875C101.708 26.1875 105.167 24.75 109.5 23.875C113.875 22.9583 118.708 22.5 124 22.5C133.792 22.5 141.146 24.1042 146.062 27.3125C150.979 30.4792 153.438 36.0417 153.438 44V76.25C153.438 79.75 153.958 82.125 155 83.375C156.083 84.5833 158.083 85.1875 161 85.1875H161.5V93H132.938L129.75 85.8125H128.438C126.521 88.0208 124.75 89.75 123.125 91C121.5 92.25 119.646 93.1042 117.562 93.5625C115.521 94.0208 113.021 94.25 110.062 94.25ZM120.125 83.9375C122.708 83.9375 124.771 82.5417 126.312 79.75C127.854 76.9583 128.625 73.2292 128.625 68.5625V59.4375L124.625 59.875C121.042 60.125 118.562 61.375 117.188 63.625C115.854 65.875 115.188 69.1875 115.188 73.5625C115.188 80.4792 116.833 83.9375 120.125 83.9375ZM213.375 113.5V121.312H165.875V113.5H167.812C168.396 113.5 169.396 113.333 170.812 113C172.146 112.625 173.312 111.875 174.312 110.75C175.354 109.667 175.875 108.021 175.875 105.812V41.4375C175.875 37.3958 175.25 34.8542 174 33.8125C172.75 32.7292 171.062 32.1875 168.938 32.1875H168.312V24.375H195.438L198.5 33.25H199C200.792 30.3333 203.271 27.9167 206.438 26C209.604 24.0833 213.667 23.125 218.625 23.125C227.167 23.125 233.667 26.0208 238.125 31.8125C242.625 37.6042 244.875 46.7292 244.875 59.1875C244.875 71.5625 242.646 80.5833 238.188 86.25C233.771 91.875 227.125 94.6875 218.25 94.6875C213.958 94.6875 210.479 94.0625 207.812 92.8125C205.188 91.5625 202.938 89.75 201.062 87.375H200.312C200.479 89.5833 200.604 91.8333 200.688 94.125C200.771 96.4583 200.812 98.8958 200.812 101.438V105.312C200.812 107.688 201.333 109.458 202.375 110.625C203.375 111.75 204.521 112.5 205.812 112.875C207.104 113.292 208.083 113.5 208.75 113.5H213.375ZM210.562 84.3125C213.938 84.3125 216.333 82.3125 217.75 78.3125C219.167 74.4375 219.875 68.1875 219.875 59.5625C219.875 51.4375 219.188 45.1042 217.812 40.5625C216.396 36.0208 214.104 33.75 210.938 33.75C206.938 33.75 204.25 36.0208 202.875 40.5625C201.5 45.1042 200.812 51.3125 200.812 59.1875C200.812 67.9375 201.479 74.3125 202.812 78.3125C204.146 82.3125 206.729 84.3125 210.562 84.3125ZM284.062 94.25C277.479 94.25 272.25 92.7292 268.375 89.6875C264.5 86.6042 262.562 81.3125 262.562 73.8125V34.125H253.062V26.5625C256.729 26.5625 259.75 25.875 262.125 24.5C264.542 23.0833 266.333 21.6875 267.5 20.3125C268.625 19.1042 269.729 17.4792 270.812 15.4375C271.938 13.3958 272.812 11.0417 273.438 8.375H287.5V24.375H303.625V34.125H287.5V71.25C287.5 74.6667 287.979 77.1875 288.938 78.8125C289.938 80.4375 291.979 81.25 295.062 81.25C296.771 81.25 298.479 81.125 300.188 80.875C301.896 80.5833 303.417 80.2708 304.75 79.9375V90.1875C303.25 90.9375 300.75 91.8125 297.25 92.8125C293.75 93.7708 289.354 94.25 284.062 94.25ZM340 94.25C332.167 94.25 326.583 92.1458 323.25 87.9375C319.917 83.7292 318.25 77.3542 318.25 68.8125V41.5625C318.25 37.8958 317.875 35.4167 317.125 34.125C316.417 32.8333 314.438 32.1875 311.188 32.1875H310.688V24.375H343.188V63.0625C343.188 68.4375 343.667 72.875 344.625 76.375C345.542 79.7917 347.375 81.5 350.125 81.5C353.083 81.5 355.229 79.8333 356.562 76.5C357.896 73.1667 358.562 68.6458 358.562 62.9375V39.625C358.562 36.125 357.958 34.0208 356.75 33.3125C355.583 32.5625 353.875 32.1875 351.625 32.1875H351.125V24.375H383.375V77.5C383.375 81.1667 384.021 83.375 385.312 84.125C386.604 84.8333 388.354 85.1875 390.562 85.1875H392.125V93H362.812L359.188 84.8125H358.562C356.688 87.7292 354.25 90.0417 351.25 91.75C348.292 93.4167 344.542 94.25 340 94.25ZM443.875 85.1875V93H396.875V85.1875H397.5C400.417 85.1875 402.667 84.6667 404.25 83.625C405.833 82.5417 406.625 80 406.625 76V40.875C406.625 37.125 405.979 34.75 404.688 33.75C403.396 32.7083 401.354 32.1875 398.562 32.1875H398V24.375H427.875L430.562 36.3125H431.188C433.396 31.2708 436.083 27.75 439.25 25.75C442.417 23.75 446.458 22.75 451.375 22.75C456.333 22.75 459.917 23.9583 462.125 26.375C464.375 28.7917 465.5 31.7917 465.5 35.375C465.5 40.1667 463.75 43.5833 460.25 45.625C456.75 47.6667 452.146 48.6875 446.438 48.6875C446.438 45.1875 446.104 42.4583 445.438 40.5C444.812 38.5417 443.312 37.5625 440.938 37.5625C438.812 37.5625 437.104 38.5208 435.812 40.4375C434.438 42.3542 433.375 44.8542 432.625 47.9375C431.917 51.0208 431.562 54.1875 431.562 57.4375V76.625C431.562 80.375 432.271 82.75 433.688 83.75C435.104 84.7083 437 85.1875 439.375 85.1875H443.875ZM508.25 94.25C496.167 94.25 487.188 91.1667 481.312 85C475.479 78.8333 472.562 70.1458 472.562 58.9375C472.562 46.8958 475.521 37.8125 481.438 31.6875C487.396 25.5625 495.833 22.5 506.75 22.5C516.792 22.5 524.688 25.125 530.438 30.375C536.229 35.5833 539.125 43.2708 539.125 53.4375V60.5H497.625C497.833 68.5 499.354 74.3333 502.188 78C505.062 81.6667 509.229 83.5 514.688 83.5C519.021 83.5 522.479 82.3958 525.062 80.1875C527.688 77.9792 529.688 75.1667 531.062 71.75C532.688 72.1667 534.021 72.9583 535.062 74.125C536.146 75.2917 536.688 76.6667 536.688 78.25C536.688 80.8333 535.75 83.3542 533.875 85.8125C532 88.3125 528.958 90.3542 524.75 91.9375C520.583 93.4792 515.083 94.25 508.25 94.25ZM497.938 51.375H514.688C514.688 45.0417 514.104 40.2083 512.938 36.875C511.771 33.5 509.917 31.8125 507.375 31.8125C504.708 31.8125 502.458 33.4792 500.625 36.8125C498.833 40.1042 497.938 44.9583 497.938 51.375ZM630.562 94.25C620.146 94.25 611.521 92.2917 604.688 88.375C597.812 84.4583 592.646 78.9792 589.188 71.9375C585.729 64.8958 584 56.6458 584 47.1875C584 37.9792 585.75 29.8542 589.25 22.8125C592.75 15.7708 597.958 10.2708 604.875 6.3125C611.792 2.3125 620.312 0.3125 630.438 0.3125C641.021 0.3125 648.938 1.8125 654.188 4.8125C659.438 7.8125 662.062 11.3958 662.062 15.5625C662.062 19.0625 660.458 22.0625 657.25 24.5625C654.083 27.0208 649.167 28.25 642.5 28.25C642.5 25.25 642.104 22.3542 641.312 19.5625C640.521 16.7292 639.125 14.3542 637.125 12.4375C635.167 10.5208 632.479 9.5625 629.062 9.5625C622.062 9.5625 617.271 12.8333 614.688 19.375C612.146 25.875 610.875 35.1458 610.875 47.1875C610.875 55.9792 611.646 62.9375 613.188 68.0625C614.729 73.2708 617.25 77.0208 620.75 79.3125C624.25 81.6042 628.979 82.75 634.938 82.75C639.646 82.75 643.562 82.0417 646.688 80.625C649.896 79.25 652.604 77.5625 654.812 75.5625C657.021 73.5208 658.854 71.5208 660.312 69.5625C660.896 70.1875 661.354 71.1042 661.688 72.3125C662.021 73.4792 662.188 74.5208 662.188 75.4375C662.188 77.4375 661.729 79.5208 660.812 81.6875C659.938 83.8542 658.354 85.8958 656.062 87.8125C653.771 89.7292 650.542 91.2917 646.375 92.5C642.25 93.6667 636.979 94.25 630.562 94.25ZM716 85.1875V93H669V85.1875H669.625C672.542 85.1875 674.792 84.6667 676.375 83.625C677.958 82.5417 678.75 80 678.75 76V40.875C678.75 37.125 678.104 34.75 676.812 33.75C675.521 32.7083 673.479 32.1875 670.688 32.1875H670.125V24.375H700L702.688 36.3125H703.312C705.521 31.2708 708.208 27.75 711.375 25.75C714.542 23.75 718.583 22.75 723.5 22.75C728.458 22.75 732.042 23.9583 734.25 26.375C736.5 28.7917 737.625 31.7917 737.625 35.375C737.625 40.1667 735.875 43.5833 732.375 45.625C728.875 47.6667 724.271 48.6875 718.562 48.6875C718.562 45.1875 718.229 42.4583 717.562 40.5C716.938 38.5417 715.438 37.5625 713.062 37.5625C710.938 37.5625 709.229 38.5208 707.938 40.4375C706.562 42.3542 705.5 44.8542 704.75 47.9375C704.042 51.0208 703.688 54.1875 703.688 57.4375V76.625C703.688 80.375 704.396 82.75 705.812 83.75C707.229 84.7083 709.125 85.1875 711.5 85.1875H716ZM764.938 94.25C761.229 94.25 757.854 93.4792 754.812 91.9375C751.729 90.4375 749.271 88.125 747.438 85C745.604 81.875 744.688 77.9375 744.688 73.1875C744.688 66.1042 747.021 60.8958 751.688 57.5625C756.396 54.2292 763.5 52.3958 773 52.0625L783.312 51.625V45C783.312 40.3333 782.771 36.875 781.688 34.625C780.562 32.4167 778.896 31.3125 776.688 31.3125C774.646 31.3125 773.042 32.4583 771.875 34.75C770.667 37.0833 770.062 40.5 770.062 45C763.354 45 758.333 44.3125 755 42.9375C751.708 41.5625 750.062 39.2708 750.062 36.0625C750.062 32.8125 751.375 30.1875 754 28.1875C756.583 26.1875 760.042 24.75 764.375 23.875C768.75 22.9583 773.583 22.5 778.875 22.5C788.667 22.5 796.021 24.1042 800.938 27.3125C805.854 30.4792 808.312 36.0417 808.312 44V76.25C808.312 79.75 808.833 82.125 809.875 83.375C810.958 84.5833 812.958 85.1875 815.875 85.1875H816.375V93H787.812L784.625 85.8125H783.312C781.396 88.0208 779.625 89.75 778 91C776.375 92.25 774.521 93.1042 772.438 93.5625C770.396 94.0208 767.896 94.25 764.938 94.25ZM775 83.9375C777.583 83.9375 779.646 82.5417 781.188 79.75C782.729 76.9583 783.5 73.2292 783.5 68.5625V59.4375L779.5 59.875C775.917 60.125 773.438 61.375 772.062 63.625C770.729 65.875 770.062 69.1875 770.062 73.5625C770.062 80.4792 771.708 83.9375 775 83.9375ZM887.562 68.0625L886.938 93H819.625V87.625L857.875 34.125H844.562C841.854 34.125 839.75 34.5833 838.25 35.5C836.75 36.375 835.583 38.5625 834.75 42.0625L833.438 47.0625H824.125L825.75 24.375H885.688V30L847.375 83.25H865.938C868.354 83.25 870.312 83.0208 871.812 82.5625C873.312 82.0625 874.5 81.0833 875.375 79.625C876.292 78.1667 877.042 75.9792 877.625 73.0625L878.5 68.0625H887.562ZM929.875 94.25C917.792 94.25 908.812 91.1667 902.938 85C897.104 78.8333 894.188 70.1458 894.188 58.9375C894.188 46.8958 897.146 37.8125 903.062 31.6875C909.021 25.5625 917.458 22.5 928.375 22.5C938.417 22.5 946.312 25.125 952.062 30.375C957.854 35.5833 960.75 43.2708 960.75 53.4375V60.5H919.25C919.458 68.5 920.979 74.3333 923.812 78C926.688 81.6667 930.854 83.5 936.312 83.5C940.646 83.5 944.104 82.3958 946.688 80.1875C949.312 77.9792 951.312 75.1667 952.688 71.75C954.312 72.1667 955.646 72.9583 956.688 74.125C957.771 75.2917 958.312 76.6667 958.312 78.25C958.312 80.8333 957.375 83.3542 955.5 85.8125C953.625 88.3125 950.583 90.3542 946.375 91.9375C942.208 93.4792 936.708 94.25 929.875 94.25ZM919.562 51.375H936.312C936.312 45.0417 935.729 40.2083 934.562 36.875C933.396 33.5 931.542 31.8125 929 31.8125C926.333 31.8125 924.083 33.4792 922.25 36.8125C920.458 40.1042 919.562 44.9583 919.562 51.375Z" fill="#FFFFFF"/>
</svg>
